<svg xmlns="http://www.w3.org/2000/svg" xml:space="preserve" style="fill-rule:evenodd;clip-rule:evenodd;stroke-linejoin:round;stroke-miterlimit:2" viewBox="0 0 32 32">
   <circle cx="16" cy="16" r="16" style="fill:#fff"/>
   <path d="M16 0c8.831 0 16 7.169 16 16s-7.169 16-16 16S0 24.831 0 16 7.169 0 16 0Zm0 3c7.175 0 13 5.825 13 13s-5.825 13-13 13S3 23.175 3 16 8.825 3 16 3Z" style="fill:#263cd9"/>
   <path d="M16.48 18.681A5.937 5.937 0 0 1 8 13.319a5.937 5.937 0 0 1 5.934-5.934 5.937 5.937 0 0 1 5.935 5.934 5.909 5.909 0 0 1-1.5 3.942l4.713 4.713a1.188 1.188 0 0 1-1.679 1.679l-4.747-4.748a1.165 1.165 0 0 1-.176-.224Zm-2.546-1.801a3.562 3.562 0 0 1 0-7.121 3.562 3.562 0 0 1 3.561 3.56 3.563 3.563 0 0 1-3.561 3.561Z" style="fill:#263cd9"/>
</svg>
